<?xml version="1.0" encoding="UTF-8"?>
<svg xmlns="http://www.w3.org/2000/svg" viewBox="0 0 1160 320" width="1160" height="320">
  <title>Scene 6 — bottom row: 10 × $10 → $1,150</title>
  <text x="86" y="30" text-anchor="middle" font-family="'Source Serif 4', Georgia, serif" font-size="30" fill="#434343">Ten people giving</text>
  <!-- 10 small green $10 boxes (5 × 2 grid) -->
  <g font-family="'JetBrains Mono', ui-monospace, monospace" font-weight="700" font-size="16" fill="#229500">
    <rect x="30"  y="80"  width="28" height="56" rx="6" fill="#fff" stroke="#229500" stroke-width="4"/><text x="44"  y="116" text-anchor="middle">$10</text>
    <rect x="62"  y="80"  width="28" height="56" rx="6" fill="#fff" stroke="#229500" stroke-width="4"/><text x="76"  y="116" text-anchor="middle">$10</text>
    <rect x="94"  y="80"  width="28" height="56" rx="6" fill="#fff" stroke="#229500" stroke-width="4"/><text x="108" y="116" text-anchor="middle">$10</text>
    <rect x="126" y="80"  width="28" height="56" rx="6" fill="#fff" stroke="#229500" stroke-width="4"/><text x="140" y="116" text-anchor="middle">$10</text>
    <rect x="158" y="80"  width="28" height="56" rx="6" fill="#fff" stroke="#229500" stroke-width="4"/><text x="172" y="116" text-anchor="middle">$10</text>
    <rect x="30"  y="150" width="28" height="56" rx="6" fill="#fff" stroke="#229500" stroke-width="4"/><text x="44"  y="186" text-anchor="middle">$10</text>
    <rect x="62"  y="150" width="28" height="56" rx="6" fill="#fff" stroke="#229500" stroke-width="4"/><text x="76"  y="186" text-anchor="middle">$10</text>
    <rect x="94"  y="150" width="28" height="56" rx="6" fill="#fff" stroke="#229500" stroke-width="4"/><text x="108" y="186" text-anchor="middle">$10</text>
    <rect x="126" y="150" width="28" height="56" rx="6" fill="#fff" stroke="#229500" stroke-width="4"/><text x="140" y="186" text-anchor="middle">$10</text>
    <rect x="158" y="150" width="28" height="56" rx="6" fill="#fff" stroke="#229500" stroke-width="4"/><text x="172" y="186" text-anchor="middle">$10</text>
  </g>
  <!-- Becomes + arrow -->
  <text x="435" y="90" text-anchor="middle" font-family="'Source Serif 4', Georgia, serif" font-size="30" fill="#434343">Becomes</text>
  <g transform="translate(435 158) scale(1.4)">
    <path d="M -50 -12 H 10 V -30 L 50 0 L 10 30 V 12 H -50 Z" fill="#434343"/>
  </g>
  <!-- Purple $1,150 box -->
  <rect x="720" y="80" width="220" height="136" rx="27" fill="#fff" stroke="#7600ff" stroke-linejoin="round" stroke-width="15"/>
  <text x="830" y="168" text-anchor="middle" font-family="'JetBrains Mono', ui-monospace, monospace" font-size="50" fill="#464546">$1,150</text>
  <text x="830" y="262" text-anchor="middle" font-family="'Source Serif 4', Georgia, serif" font-size="30" fill="#434343">In total for the candidate</text>
</svg>
